<?xml version="1.0" encoding="utf-8"?>
<!-- Generator: Adobe Adobe Illustrator 24.2.0, SVG Export Plug-In . SVG Version: 6.00 Build 0)  -->
<svg version="1.1" id="Layer_1" xmlns="http://www.w3.org/2000/svg" xmlns:xlink="http://www.w3.org/1999/xlink" x="0px" y="0px"
	 width="9120px" height="4912.23px" viewBox="0 0 9120 4912.23" style="enable-background:new 0 0 9120 4912.23;"
	 xml:space="preserve">
<style type="text/css">
	.st0{fill:#489CD4;}
	.st1{fill:url(#SVGID_1_);}
	.st2{fill:#6B4324;}
	.st3{fill:#8C603E;}
	.st4{fill:url(#SVGID_2_);}
	.st5{fill:url(#SVGID_3_);}
	.st6{fill:url(#SVGID_4_);}
	.st7{fill:url(#SVGID_5_);}
	.st8{fill:url(#SVGID_6_);}
	.st9{fill:url(#SVGID_7_);}
	.st10{fill:url(#SVGID_8_);}
	.st11{fill:url(#SVGID_9_);}
	.st12{fill:url(#SVGID_10_);}
	.st13{fill:url(#SVGID_11_);}
	.st14{fill:url(#SVGID_12_);}
	.st15{fill:url(#SVGID_13_);}
	.st16{fill:url(#SVGID_14_);}
	.st17{fill:url(#SVGID_15_);}
	.st18{fill:#5FAEE3;}
	.st19{fill:url(#SVGID_16_);}
	.st20{fill:url(#SVGID_17_);}
	.st21{fill:url(#SVGID_18_);}
	.st22{fill:#7F3005;}
	.st23{fill:#6B2905;}
	.st24{fill:url(#SVGID_19_);}
	.st25{fill:url(#SVGID_20_);}
	.st26{fill:url(#SVGID_21_);}
	.st27{fill:#FFCC00;}
	.st28{fill:#855022;}
	.st29{fill:#FCCFA2;}
	.st30{fill:#4A98BD;}
	.st31{fill:#4A63BD;}
	.st32{fill:#78481E;}
	.st33{fill:#FF9100;}
	.st34{fill:#2E192D;}
	.st35{fill:#FFFFFF;}
	.st36{fill:#8F7038;}
	.st37{fill:#030303;}
	.st38{opacity:0.6314;fill:#ADB0BA;}
</style>
<rect x="0" y="2686.76" class="st0" width="9120" height="2225.47"/>
<radialGradient id="SVGID_1_" cx="3400.2266" cy="-74.3368" r="2590.4563" gradientTransform="matrix(1.8301 0 0 1.2137 -2832.5828 615.4628)" gradientUnits="userSpaceOnUse">
	<stop  offset="0" style="stop-color:#9FD7FC"/>
	<stop  offset="1" style="stop-color:#65AFE0"/>
</radialGradient>
<rect class="st1" width="9120" height="2686.76"/>
<g>
	<path class="st2" d="M4667.69,2938.77l278.36-58.28c0,0-101.68-450.89-145.77-713.07c-76-451.91-286.4-1198.4-302.85-1194.83
		c-32.89,7.14,99.74,715.8,148.86,1006.95C4685.18,2209.98,4667.69,2938.77,4667.69,2938.77z"/>
	<path class="st3" d="M4824.91,2905.86c0,0,24.1-303.98,38.71-447.06c43.69-427.78,258.5-749.06,258.5-749.06
		s-84.18,570.87-84.18,758.09c0,126.41,83.56,488.8,83.56,488.8L4824.91,2905.86z"/>
	<g>
		<linearGradient id="SVGID_2_" gradientUnits="userSpaceOnUse" x1="3939.5051" y1="1199.8199" x2="4217.4829" y2="1328.0592">
			<stop  offset="0" style="stop-color:#23631C"/>
			<stop  offset="0.494" style="stop-color:#18541B"/>
			<stop  offset="1" style="stop-color:#104A1A"/>
		</linearGradient>
		<path class="st4" d="M4524.43,1089.11c-27.36-22.83-55.43-46.08-88.83-58.49c-24.83-9.22-51.5-12.03-77.85-14.76
			c-71.31-7.39-144.99-14.56-213.39,6.92c-35.03,11-67.31,29.15-99.17,47.41c-32.59,18.68-65.36,37.85-92.74,63.57
			c-21.95,20.62-39.98,45.04-56.47,70.24c-62.66,95.7-104.76,204.79-122.63,317.78c20.8-14.04,48.43-17.31,66.08-35.15
			c19.2-19.4,20.64-49.65,20.55-84.17c17.63,7.57,29.65,26.62,28.87,45.8c-2.47-12.03,6.62-23.47,16.73-30.46
			c10.11-6.98,22-11.77,30.13-20.98c17.89-20.26,10.39-51.55,1.89-77.2c7.46,21.99,22.07,41.5,41.07,54.86
			c4.08-23.2,31.77-32.68,54.97-36.75c23.2-4.08,50.87-10.68,58.46-32.98c5.81-17.06-3.43-35.23-12.37-50.88
			c36.88,9.82,77.04,6.81,112.04-8.41c19.55-8.5,38.73-22.36,44.61-42.85c-15.3,8.89-37.94-5.83-36.02-23.43
			c0.38-3.45,1.61-6.97,4.2-9.29c5.76-5.17,14.78-2.33,21.88,0.75c32,13.88,64.79,27.64,99.53,30.7
			c34.75,3.06,72.34-6.24,95.62-32.22c-22.22-2.26-33.22-27.51-39.76-48.86c-0.99-3.22-1.98-6.67-1.02-9.91
			c1.67-5.68,8.8-8.12,14.59-6.9c5.79,1.22,10.62,5.03,15.56,8.3c33.92,22.51,77.58,22.05,118.27,20.79L4524.43,1089.11z"/>
		
			<linearGradient id="SVGID_3_" gradientUnits="userSpaceOnUse" x1="14593.8506" y1="-4221.5571" x2="14871.8281" y2="-4093.3176" gradientTransform="matrix(-0.0722 0.4854 0.8177 0.2421 9064.584 -5109.1694)">
			<stop  offset="0" style="stop-color:#23631C"/>
			<stop  offset="0.494" style="stop-color:#18541B"/>
			<stop  offset="1" style="stop-color:#104A1A"/>
		</linearGradient>
		<path class="st5" d="M4426.76,1210.2c-16.69-18.81-33.68-38.06-41.42-57.28c-5.75-14.29-6.12-27.91-6.45-41.36
			c-0.9-36.41-1.45-73.91,21.05-101.91c11.52-14.34,28.7-25.62,45.92-36.66c17.63-11.3,35.66-22.56,58.68-29.63
			c18.44-5.66,39.72-8.5,61.51-10.41c82.78-7.24,175.02-1.27,268.7,17.42c-12.98,6.7-17.65,19.32-33.51,23.57
			c-17.25,4.62-42.09-2-70.31-10.4c4.92,10.39,19.63,20.84,35.37,25.11c-9.66-4.11-19.67-2.47-26.11,0.74
			c-6.44,3.22-11.21,7.83-19.33,9.55c-17.86,3.78-42.9-7.44-63.26-17.78c17.45,8.95,32.34,20.76,41.9,33.22
			c-19.27-3.64-29.01,7.51-34.02,17.79c-5.01,10.28-12.4,22.11-31.19,20.39c-14.37-1.31-28.56-10.2-40.72-18.33
			c5.37,20.28,0.01,39.05-14.96,52.35c-8.36,7.43-21.08,13.39-38.26,11.28c8.38-5.28-2.03-19.83-16.56-23.16
			c-2.85-0.65-5.81-0.91-7.9-0.21c-4.64,1.54-2.98,6.61-0.97,10.8c9.04,18.89,17.93,38.14,17.92,55.75
			c-0.01,17.61-10.32,33.61-33.25,38.61c-0.25-11.33-20.1-22.79-37.09-31.13c-2.56-1.26-5.31-2.58-8.03-2.9
			c-4.76-0.56-7.27,2.31-6.69,5.41c0.58,3.11,3.34,6.38,5.66,9.56c15.96,21.92,12.43,43,8.46,62.45L4426.76,1210.2z"/>
		
			<linearGradient id="SVGID_4_" gradientUnits="userSpaceOnUse" x1="7610.7979" y1="-493.3617" x2="7888.7754" y2="-365.1223" gradientTransform="matrix(0.7319 0.6814 -0.6494 0.6976 -1801.957 -4028.3884)">
			<stop  offset="0" style="stop-color:#23631C"/>
			<stop  offset="0.494" style="stop-color:#18541B"/>
			<stop  offset="1" style="stop-color:#104A1A"/>
		</linearGradient>
		<path class="st6" d="M4589.17,1134.45c-5.2-34.57-10.65-69.91-27.04-101.32c-12.18-23.35-29.89-43.48-47.4-63.34
			c-47.4-53.74-96.67-108.95-160.68-140.57c-32.78-16.19-68.2-25.53-103.37-34.5c-35.99-9.18-72.42-18.13-109.16-18.84
			c-29.45-0.57-58.51,4.18-86.94,10.52c-108.01,24.07-209.66,71.48-296.11,138.12c24.34,4.37,46.69,20.92,71.19,20.51
			c26.65-0.45,47.35-20.57,69.7-44.71c7.99,17.29,4.41,38.77-8.6,51.62c6-10.08,20.09-11.87,32.02-9.85s23.74,6.78,35.68,5.9
			c26.25-1.94,41.08-28.88,51.51-52.57c-8.82,20.43-10.8,43.99-5.57,66.25c18.06-13.41,44.47-1.15,64.1,11.82
			s44.17,27.22,64.21,16.83c15.33-7.95,20.37-26.92,23.99-43.93c20.61,31.98,51.97,57.24,87.47,70.47
			c19.83,7.39,42.87,10.79,60.48,0.51c-16.98-4.22-23.98-29.92-11.15-40.88c2.52-2.15,5.7-3.76,9.1-3.62
			c7.57,0.32,12.34,8.44,15.53,15.43c14.41,31.49,29.47,63.43,52.92,89.23s57,44.94,90.91,42.67c-14.79-16.72-6.46-41.83,2.63-61.18
			c1.37-2.92,2.89-6,5.68-7.61c4.91-2.82,11.71,0.33,15.16,5.13c3.44,4.8,4.51,10.75,6,16.39c10.21,38.82,42.47,68.24,73.07,95.09
			L4589.17,1134.45z"/>
		
			<linearGradient id="SVGID_5_" gradientUnits="userSpaceOnUse" x1="-316.8343" y1="746.9604" x2="-38.8566" y2="875.1997" gradientTransform="matrix(0.6827 -0.6192 0.5567 0.6138 4004.355 849.0522)">
			<stop  offset="0" style="stop-color:#23631C"/>
			<stop  offset="0.494" style="stop-color:#18541B"/>
			<stop  offset="1" style="stop-color:#104A1A"/>
		</linearGradient>
		<path class="st7" d="M4541.59,1073.61c-31.39,2.93-63.49,6.03-93.21,19.1c-22.09,9.71-41.86,24.5-61.36,39.14
			c-52.8,39.62-107.1,80.83-141.84,136.37c-17.79,28.44-29.73,59.57-41.31,90.5c-11.85,31.65-23.55,63.7-27.93,96.45
			c-3.5,26.24-2.22,52.4,0.55,78.08c10.5,97.54,42.49,190.57,93.18,270.99c6.38-21.5,23.43-40.61,25.55-62.49
			c2.31-23.79-13.55-43.26-32.83-64.4c16.25-6.27,35.06-2.01,45.21,10.23c-8.39-5.86-8.55-18.51-5.54-29.05s8.47-20.85,8.89-31.53
			c0.94-23.51-21.6-38.08-41.69-48.56c17.34,8.88,38.17,11.81,58.58,8.25c-10.13-16.77,3.5-39.73,17.07-56.6
			c13.57-16.87,28.79-38.05,21.55-56.45c-5.54-14.07-21.96-19.5-36.77-23.57c30.65-16.8,56.39-43.52,71.81-74.54
			c8.61-17.32,14-37.71,6.61-53.93c-5.5,14.93-29.15,19.91-37.63,7.92c-1.67-2.35-2.78-5.27-2.31-8.3
			c1.05-6.74,8.79-10.59,15.35-13.09c29.57-11.29,59.62-23.15,85.04-42.79c25.42-19.64,45.92-48.62,47.34-78.98
			c-16.43,12.37-38,3.69-54.35-5.37c-2.47-1.37-5.06-2.87-6.21-5.45c-2.02-4.52,1.49-10.43,6.12-13.27
			c4.63-2.83,10.05-3.49,15.24-4.54c35.69-7.18,65.24-34.5,92.32-60.47L4541.59,1073.61z"/>
		
			<linearGradient id="SVGID_6_" gradientUnits="userSpaceOnUse" x1="-4695.7119" y1="-1024.0066" x2="-4417.7349" y2="-895.7674" gradientTransform="matrix(0.2022 -0.5721 0.6361 0.2249 6080.3042 -984.4716)">
			<stop  offset="0" style="stop-color:#23631C"/>
			<stop  offset="0.494" style="stop-color:#18541B"/>
			<stop  offset="1" style="stop-color:#104A1A"/>
		</linearGradient>
		<path class="st8" d="M4527.12,1112.16c-20.06,10.52-40.52,21.35-55.17,37.67c-10.89,12.13-18.07,26.76-25.13,41.22
			c-19.12,39.14-38.59,79.67-38.76,123.64c-0.09,22.51,4.93,45.07,10.1,67.39c5.29,22.85,10.86,45.9,21.68,67.35
			c8.68,17.19,20.57,33,33.26,48.1c48.2,57.37,109.08,105.98,177.33,141.61c-4.73-15.06-1.22-31.6-8.99-45.71
			c-8.46-15.34-27.41-22.97-49.39-30.69c8.38-8.39,22.93-10.98,34.97-6.22c-8.15-1.29-13.59-9.06-15.99-16.42
			s-3.04-15.23-7.25-21.96c-9.27-14.79-30.69-17.54-48.72-18.44c15.5,0.67,30.86-3.29,43.2-11.16
			c-13.93-7.55-14.36-25.52-12.26-39.71c2.1-14.19,3.5-31.51-9.16-40.86c-9.68-7.16-23.11-5.96-34.87-4.36
			c13.71-18.89,19.91-42.55,17.31-65.99c-1.45-13.09-6.39-27.19-18.23-35.16c2.56,10.75-11.39,20.39-22.19,15.34
			c-2.12-0.99-4.11-2.49-5.06-4.49c-2.12-4.46,1.51-8.98,4.9-12.35c15.3-15.18,30.69-30.85,39.66-50.04
			c8.97-19.19,10.66-42.79-1.16-61.95c-5.93,12.2-24.22,12.82-39.12,11.76c-2.25-0.16-4.64-0.37-6.51-1.64
			c-3.27-2.23-3.38-6.86-1.44-9.9c1.95-3.04,5.35-4.95,8.42-7.03c21.18-14.34,29.71-39.43,37.14-62.99L4527.12,1112.16z"/>
		
			<linearGradient id="SVGID_7_" gradientUnits="userSpaceOnUse" x1="8829.874" y1="-3490.2461" x2="9107.8516" y2="-3362.0068" gradientTransform="matrix(-0.2192 0.8953 0.8049 0.197 9464.7598 -6655.4917)">
			<stop  offset="0" style="stop-color:#23631C"/>
			<stop  offset="0.494" style="stop-color:#18541B"/>
			<stop  offset="1" style="stop-color:#104A1A"/>
		</linearGradient>
		<path class="st9" d="M4503.04,1063.64c-12.38-28.99-24.94-58.7-27.61-91.05c-1.98-24.04,1.6-48.48,5.18-72.6
			c9.68-65.3,20.05-132.67,52.33-189.67c16.53-29.19,38.22-54.52,59.89-79.44c22.18-25.5,44.79-51.06,71.49-70.5
			c21.41-15.58,45.02-26.91,68.91-36.72c90.76-37.24,187.8-53.43,282.66-47.17c-15.86,15.85-24.55,39.95-42.77,52.24
			c-19.82,13.36-44.49,8.7-72.26,1.82c2.23,17.28,14.93,31.79,30.53,34.87c-9.14-4.59-20.34,1.3-28.18,8.97
			c-7.84,7.67-14.29,17.38-23.49,22.84c-20.23,12.02-43.77-0.85-62.55-13.52c16.07,11.02,28.57,27.93,35.16,47.57
			c-19.57-0.92-33.26,22-41.63,41.97c-8.37,19.97-19.74,43.44-39.36,45.84c-15.01,1.84-27.61-10.01-38.24-21.1
			c-0.17,34.95-11.4,70.32-31.32,98.65c-11.13,15.83-26.48,30.27-44.27,31.5c10.51-11.95,3.62-35.12-10.97-36.86
			c-2.86-0.34-5.96,0.07-8.4,1.93c-5.42,4.14-5.12,12.78-4.2,19.74c4.16,31.38,8.05,63.45,2.9,95.16
			c-5.16,31.71-20.88,63.53-46.89,79.25c3.05-20.34-14.86-35.16-30.62-45.22c-2.38-1.52-4.94-3.08-7.75-2.87
			c-4.94,0.38-8.46,6.28-8.75,11.7c-0.29,5.42,1.72,10.5,3.27,15.56c10.69,34.8,0.75,73.8-9.19,109.98L4503.04,1063.64z"/>
		
			<linearGradient id="SVGID_8_" gradientUnits="userSpaceOnUse" x1="7105.9722" y1="-1165.7688" x2="7383.9497" y2="-1037.5294" gradientTransform="matrix(-0.7003 0.7754 0.7146 0.6531 10803.8447 -4032.0217)">
			<stop  offset="0" style="stop-color:#23631C"/>
			<stop  offset="0.494" style="stop-color:#18541B"/>
			<stop  offset="1" style="stop-color:#104A1A"/>
		</linearGradient>
		<path class="st10" d="M4506.02,1097.72c2.84-36.13,5.89-73.07,20.41-107.08c10.79-25.28,27.47-47.79,43.97-70
			c44.66-60.12,91.12-121.93,154.37-160.94c32.39-19.98,67.97-33.15,103.32-45.93c36.18-13.07,72.81-25.96,110.37-30.39
			c30.1-3.55,60.18-1.58,89.73,2.09c112.26,13.92,219.7,52.53,312.95,112.46c-24.6,6.95-46.29,26.25-71.39,28.28
			c-27.3,2.21-49.93-16.42-74.54-39.04c-6.94,18.61-1.74,40.38,12.51,52.3c-6.87-9.78-21.41-10.2-33.48-6.92s-23.82,9.37-36.09,9.66
			c-27,0.64-44.11-25.61-56.49-48.96c10.49,20.15,14.2,44.22,10.45,67.67c-19.44-11.99-45.6,3.29-64.76,18.62
			s-43.26,32.47-64.51,23.79c-16.26-6.64-22.78-25.67-27.7-42.83c-18.8,35.01-49.09,64.19-84.47,81.38
			c-19.76,9.6-43.1,15.43-61.86,6.61c17.07-6.06,22.4-33.23,8.48-43.23c-2.73-1.96-6.11-3.3-9.58-2.81
			c-7.72,1.09-12.02,9.94-14.79,17.45c-12.49,33.88-25.62,68.29-47.76,97.23c-22.15,28.94-55.12,52.02-89.98,53.1
			c13.94-18.71,3.61-43.73-7.07-62.74c-1.61-2.87-3.38-5.89-6.36-7.26c-5.23-2.41-11.96,1.52-15.14,6.81s-3.85,11.52-4.96,17.48
			c-7.67,41.01-38.57,74.55-67.97,105.28L4506.02,1097.72z"/>
		
			<linearGradient id="SVGID_9_" gradientUnits="userSpaceOnUse" x1="2232.7805" y1="1923.8151" x2="2510.7581" y2="2052.0544" gradientTransform="matrix(-0.9137 -0.2271 -0.1885 0.7877 7372.6802 271.8637)">
			<stop  offset="0" style="stop-color:#23631C"/>
			<stop  offset="0.494" style="stop-color:#18541B"/>
			<stop  offset="1" style="stop-color:#104A1A"/>
		</linearGradient>
		<path class="st11" d="M4456.29,1060.17c29.3-11.77,59.33-23.71,92.19-25.9c24.42-1.63,49.32,2.22,73.91,6.05
			c66.55,10.38,135.22,21.46,193.67,53.91c29.93,16.62,56.01,38.25,81.67,59.87c26.26,22.12,52.58,44.66,72.75,71.14
			c16.17,21.23,28.03,44.56,38.36,68.15c39.21,89.62,57.11,185.11,52.14,278.17c-16.35-15.78-40.99-24.64-53.75-42.69
			c-13.88-19.64-9.5-43.8-2.91-70.97c-17.54,1.96-32.11,14.24-35.02,29.52c4.53-8.92-1.62-19.99-9.54-27.79
			c-7.92-7.8-17.88-14.27-23.58-23.37c-12.53-20.02,0.22-42.96,12.83-61.24c-10.97,15.63-27.99,27.68-47.86,33.89
			c0.65-19.21-22.87-32.96-43.3-41.44c-20.43-8.48-44.47-19.97-47.2-39.26c-2.09-14.76,9.78-26.98,20.9-37.27
			c-35.55-0.64-71.68-12.13-100.79-32.07c-16.26-11.14-31.18-26.41-32.69-43.88c12.31,10.48,35.77,4.02,37.32-10.28
			c0.31-2.81-0.16-5.85-2.08-8.27c-4.29-5.38-13.07-5.2-20.13-4.38c-31.85,3.67-64.41,7.06-96.73,1.58s-64.92-21.35-81.29-47.1
			c20.73,3.26,35.54-14.12,45.54-29.46c1.51-2.31,3.06-4.81,2.8-7.57c-0.46-4.85-6.51-8.39-12.03-8.75
			c-5.52-0.35-10.66,1.55-15.78,3c-35.24,10.03-75.04-0.25-111.99-10.49L4456.29,1060.17z"/>
	</g>
	<g>
		
			<linearGradient id="SVGID_10_" gradientUnits="userSpaceOnUse" x1="9869.6797" y1="-2808.5767" x2="10147.6572" y2="-2680.3374" gradientTransform="matrix(0.3104 0.9506 -0.9506 0.3104 -908.5233 -7275.8311)">
			<stop  offset="0" style="stop-color:#23631C"/>
			<stop  offset="0.494" style="stop-color:#18541B"/>
			<stop  offset="1" style="stop-color:#104A1A"/>
		</linearGradient>
		<path class="st12" d="M5111.76,1756.19c13.21-33.1,26.6-66.99,28.02-102.6c1.06-26.46-4.55-52.69-10.13-78.58
			c-15.11-70.08-31.16-142.35-72.81-200.7c-21.33-29.88-48.61-54.94-75.85-79.55c-27.88-25.18-56.27-50.38-89.22-68.43
			c-26.41-14.46-55.23-24.02-84.3-31.88c-110.42-29.86-227.19-36.01-340.14-17.93c19.8,15.41,31.49,40.67,53.92,51.91
			c24.4,12.23,53.61,4.21,86.4-6.59c-1.72,19.11-16.11,36.45-34.57,41.66c10.67-6.09,24.37-1,34.14,6.45
			c9.78,7.44,18.02,17.26,29.29,22.13c24.81,10.72,52.23-6.12,73.97-22.17c-18.59,13.92-32.6,33.86-39.4,56.07
			c23.32-3.32,40.92,20.05,52,40.85s25.94,45.05,49.5,45.34c18.02,0.22,32.43-14.2,44.53-27.56c2.11,38.1,17.44,75.35,42.77,103.89
			c14.15,15.94,33.28,29.88,54.58,29.11c-13.2-11.79-6.23-37.88,11.09-41.51c3.4-0.71,7.12-0.63,10.13,1.1
			c6.7,3.87,6.81,13.33,6.08,21.03c-3.26,34.73-6.17,70.17,1.72,104.15s28.39,66.83,60.31,80.89
			c-4.74-21.82,15.83-40.12,34.11-52.96c2.76-1.94,5.73-3.95,9.1-4.05c5.91-0.17,10.45,5.84,11.08,11.73
			c0.64,5.88-1.48,11.66-3.06,17.36c-10.87,39.23,3.12,80.59,16.95,118.88L5111.76,1756.19z"/>
		
			<linearGradient id="SVGID_11_" gradientUnits="userSpaceOnUse" x1="3610.0322" y1="2368.2861" x2="3888.0159" y2="2496.5283" gradientTransform="matrix(0.9208 0.041 -0.0458 1.0277 1398.8779 -794.1799)">
			<stop  offset="0" style="stop-color:#23631C"/>
			<stop  offset="0.494" style="stop-color:#18541B"/>
			<stop  offset="1" style="stop-color:#104A1A"/>
		</linearGradient>
		<path class="st13" d="M5158.09,1698.19c-24.15-24.58-48.92-49.62-79.11-63.74c-22.44-10.5-46.87-14.47-71-18.36
			c-65.32-10.52-132.83-20.91-196.8-1.65c-32.76,9.87-63.32,27.19-93.48,44.65c-30.87,17.86-61.92,36.21-88.3,61.52
			c-21.15,20.29-38.87,44.64-55.21,69.85c-62.08,95.77-105.84,206.13-127.47,321.5c19.79-13.58,45.39-15.8,62.46-33.4
			c18.56-19.14,21.28-50.17,22.78-85.65c15.89,8.5,26.08,28.57,24.49,48.24c-1.73-12.47,7.17-23.85,16.8-30.61
			c9.63-6.76,20.79-11.19,28.7-20.32c17.4-20.08,11.93-52.54,5.28-79.25c5.87,22.91,18.42,43.55,35.3,58.06
			c4.82-23.68,30.75-32.27,52.3-35.51c21.55-3.24,47.33-8.88,55.34-31.49c6.13-17.29-1.54-36.35-9.06-52.79
			c33.51,11.61,70.63,10.16,103.55-4.05c18.39-7.93,36.69-21.39,43.04-42.2c-14.5,8.51-34.67-7.55-32.09-25.55
			c0.51-3.53,1.8-7.09,4.29-9.37c5.54-5.08,13.72-1.79,20.11,1.66c28.83,15.58,58.39,31.06,90.24,35.63
			c31.85,4.56,66.9-3.44,89.52-29.18c-20.35-3.24-29.33-29.63-34.37-51.84c-0.76-3.35-1.52-6.94-0.49-10.22
			c1.8-5.76,8.47-7.98,13.75-6.49s9.55,5.6,13.94,9.17c30.2,24.53,70.42,25.84,107.95,26.21L5158.09,1698.19z"/>
		
			<linearGradient id="SVGID_12_" gradientUnits="userSpaceOnUse" x1="1034.7886" y1="3089.4485" x2="1312.7723" y2="3217.6907" gradientTransform="matrix(0.5427 -0.1487 0.2303 0.8407 3601.8269 -520.3225)">
			<stop  offset="0" style="stop-color:#23631C"/>
			<stop  offset="0.494" style="stop-color:#18541B"/>
			<stop  offset="1" style="stop-color:#104A1A"/>
		</linearGradient>
		<path class="st14" d="M5167.02,1743.09c-20.11-15.12-40.69-30.49-61.68-35.95c-15.6-4.06-30.72-2.45-45.65-0.83
			c-40.4,4.39-82.04,9.32-114.21,37.55c-16.48,14.46-29.82,34.51-42.9,54.6c-13.39,20.55-26.75,41.53-35.69,67.23
			c-7.16,20.59-11.32,43.81-14.47,67.43c-11.96,89.76-9.69,187.72,6.63,285.34c8.05-14.9,22.3-21.75,27.77-39.37
			c5.95-19.16-0.23-44.8-8.23-73.81c11.31,3.74,22.22,17.97,26.22,34.2c-4.11-9.75-1.81-20.71,2.06-28.09s9.23-13.16,11.52-22.11
			c5.04-19.69-6.23-44.87-16.75-65.17c9.12,17.38,21.53,31.6,34.92,40.01c-3.13-20.11,9.71-32.19,21.37-39.07
			c11.65-6.88,25.15-16.54,24.13-36.42c-0.78-15.21-9.98-29.11-18.43-40.93c22.28,2.77,43.38-5.73,58.87-23.73
			c8.65-10.05,15.87-24.55,14.34-42.65c-6.26,9.75-21.93,0.74-24.94-14.34c-0.59-2.96-0.73-6.1,0.14-8.43
			c1.93-5.2,7.49-4.16,12.05-2.63c20.56,6.91,41.53,13.6,61.09,11c19.56-2.6,37.82-16,44.47-41.3
			c-12.58,1.4-24.37-18.18-32.83-35.16c-1.28-2.56-2.61-5.31-2.84-8.17c-0.4-5.02,2.91-8.13,6.33-7.97s6.92,2.65,10.35,4.66
			c23.59,13.88,47.18,7,68.97-0.12L5167.02,1743.09z"/>
		
			<linearGradient id="SVGID_13_" gradientUnits="userSpaceOnUse" x1="7918.6904" y1="-36.7915" x2="8196.668" y2="91.4478" gradientTransform="matrix(-0.6475 0.7035 0.6413 0.5942 10620.2803 -4131.7144)">
			<stop  offset="0" style="stop-color:#23631C"/>
			<stop  offset="0.494" style="stop-color:#18541B"/>
			<stop  offset="1" style="stop-color:#104A1A"/>
		</linearGradient>
		<path class="st15" d="M5019.91,1762.97c3.07-32.81,6.34-66.37,20-97.25c10.16-22.95,25.63-43.38,40.94-63.53
			c41.43-54.56,84.53-110.65,142.6-146.01c29.73-18.11,62.28-30.03,94.61-41.59c33.09-11.83,66.59-23.49,100.82-27.47
			c27.43-3.19,54.77-1.36,81.61,2.01c101.94,12.79,199.16,47.99,283.2,102.56c-22.47,6.29-42.46,23.79-65.33,25.6
			c-24.87,1.98-45.21-14.98-67.29-35.56c-6.56,16.9-2.12,36.68,10.68,47.53c-6.12-8.89-19.34-9.29-30.36-6.33
			c-11.02,2.96-21.79,8.48-32.96,8.73c-24.57,0.55-39.79-23.32-50.73-44.54c9.27,18.32,12.33,40.18,8.6,61.49
			c-17.52-10.92-41.52,2.93-59.16,16.83c-17.64,13.9-39.79,29.45-59.01,21.53c-14.7-6.06-20.38-23.35-24.62-38.94
			c-17.58,31.78-45.52,58.25-77.94,73.82c-18.11,8.7-39.42,13.96-56.36,5.93c15.61-5.48,20.82-30.16,8.29-39.26
			c-2.46-1.79-5.51-3.01-8.67-2.57c-7.04,0.98-11.07,9.01-13.69,15.84c-11.81,30.76-24.22,62-44.76,88.26s-50.84,47.18-82.57,48.12
			c12.93-16.98,3.87-39.72-5.59-57.01c-1.43-2.61-3-5.36-5.69-6.61c-4.72-2.2-10.9,1.37-13.87,6.17c-2.96,4.8-3.66,10.46-4.75,15.87
			c-7.52,37.24-36.09,67.68-63.25,95.56L5019.91,1762.97z"/>
		
			<linearGradient id="SVGID_14_" gradientUnits="userSpaceOnUse" x1="5085.0454" y1="1278.4094" x2="5363.0229" y2="1406.6488" gradientTransform="matrix(-0.9882 0.3393 0.3089 0.9175 10306.8838 -1234.4233)">
			<stop  offset="0" style="stop-color:#23631C"/>
			<stop  offset="0.494" style="stop-color:#18541B"/>
			<stop  offset="1" style="stop-color:#104A1A"/>
		</linearGradient>
		<path class="st16" d="M5064.61,1760.51c19.98-30.23,40.54-61.08,69.71-83.8c21.69-16.89,47.18-28.51,72.37-39.95
			c68.19-30.97,138.78-62.55,213-66.05c38.01-1.79,75.52,3.91,112.64,9.86c37.98,6.08,76.28,12.55,111.28,26.86
			c28.06,11.47,53.42,27.76,77.5,45.28c91.48,66.55,166.78,152.36,219.34,249.95c-24.89-5.83-53.21,0.55-76.16-9.83
			c-24.96-11.29-35.73-38.55-46.31-70.26c-15.09,12.92-21.07,34.49-14.39,51.81c-1.27-11.88-13.79-19.29-25.94-22.27
			c-12.15-2.98-25.37-3.34-36.25-9.02c-23.94-12.52-26.19-43.77-25.71-70.19c-0.58,22.71-8.99,45.56-23.63,64.27
			c-11.2-19.9-41.49-19.2-65.68-15.07c-24.19,4.13-53.57,7.46-67.96-10.43c-11.01-13.69-7.49-33.49-3.49-50.88
			c-33.41,21.52-74.03,32.38-113.31,30.29c-21.94-1.17-45.18-7.37-57.32-24.18c17.87,2.97,35.69-18.23,28.35-33.71
			c-1.44-3.04-3.74-5.85-7.02-7.1c-7.29-2.79-15.33,2.87-21.39,8.11c-27.33,23.59-55.48,47.34-88.88,61.93
			c-33.39,14.59-73.41,18.82-104.44,2.88c21.26-9.61,24.33-36.51,24.2-58.32c-0.02-3.29-0.11-6.79-2.05-9.44
			c-3.41-4.64-11.2-4.46-16.55-1.38s-8.95,8.22-12.81,12.89c-26.57,32.16-69.85,46.55-110.45,59.2L5064.61,1760.51z"/>
		
			<linearGradient id="SVGID_15_" gradientUnits="userSpaceOnUse" x1="-898.1589" y1="1001.8376" x2="-620.1813" y2="1130.077" gradientTransform="matrix(-0.7159 -0.6709 -0.5441 0.6005 5278.9917 934.8528)">
			<stop  offset="0" style="stop-color:#23631C"/>
			<stop  offset="0.494" style="stop-color:#18541B"/>
			<stop  offset="1" style="stop-color:#104A1A"/>
		</linearGradient>
		<path class="st17" d="M5018.38,1680.13c32.01,4.65,64.75,9.52,95.42,24.48c22.79,11.12,43.42,27.33,63.76,43.37
			c55.08,43.41,111.72,88.53,149.01,147.32c19.09,30.11,32.33,62.67,45.2,95c13.17,33.09,26.2,66.58,31.8,100.4
			c4.49,27.11,4.11,53.87,2.21,80.06c-7.21,99.51-36.43,193.26-85.11,273.1c-7.25-22.39-25.26-42.89-28.19-65.44
			c-3.19-24.53,12.24-43.66,31.08-64.34c-16.74-7.29-35.71-3.9-45.59,8.13c8.32-5.57,8.03-18.54,4.6-29.51s-9.35-21.83-10.16-32.81
			c-1.79-24.17,20.61-37.93,40.65-47.63c-17.31,8.2-38.38,10.12-59.25,5.39c9.7-16.67-4.96-40.94-19.36-58.95
			c-14.39-18.02-30.61-40.55-23.91-59.03c5.13-14.14,21.63-18.86,36.54-22.25c-31.75-18.84-58.86-47.6-75.64-80.22
			c-9.37-18.22-15.56-39.41-8.63-55.66c6.12,15.61,30.34,21.95,38.53,10.09c1.61-2.33,2.64-5.26,2.05-8.39
			c-1.31-6.97-9.31-11.32-16.07-14.23c-30.46-13.13-61.42-26.87-87.96-48.35c-26.54-21.48-48.4-52.28-50.92-83.5
			c17.14,13.55,38.75,5.77,55.05-2.67c2.46-1.27,5.05-2.68,6.12-5.26c1.89-4.53-1.88-10.78-6.69-13.93
			c-4.81-3.15-10.34-4.11-15.65-5.45c-36.54-9.24-67.54-38.81-95.98-66.87L5018.38,1680.13z"/>
	</g>
	<path class="st18" d="M3992.65,3364.1c0,0-491.29,35.87-493.97,113.62c-3.76,109.4,1089.66,49.5,1093.88,104.28
		c2.6,33.7-296.63,52.18-294.82,104.56c2.3,66.52,658.28,93.73,882.41,102.56c210.34,8.28,836.92,30.28,856.48-36.06
		c13.09-44.39-171.48-69.6-166.12-90.24c3.56-13.7,416.59-0.76,421.93-67.27c7.46-92.81-1382.27-308.02-1382.27-308.02
		L3992.65,3364.1z"/>
	<linearGradient id="SVGID_16_" gradientUnits="userSpaceOnUse" x1="4119.9375" y1="3168.4231" x2="5734.8354" y2="3168.4231">
		<stop  offset="0" style="stop-color:#5A8A46"/>
		<stop  offset="1" style="stop-color:#22612B"/>
	</linearGradient>
	<path class="st19" d="M3796.5,3438.78c0,0,431.19-534.47,1111.19-557.58c703.08-23.9,827.15,575.16,827.15,575.16L3796.5,3438.78z"
		/>
	<linearGradient id="SVGID_17_" gradientUnits="userSpaceOnUse" x1="5840.8667" y1="3646.7007" x2="4813.7207" y2="3249.4963">
		<stop  offset="0" style="stop-color:#5A8A46"/>
		<stop  offset="1" style="stop-color:#61AD50"/>
	</linearGradient>
	<path class="st20" d="M4567.97,3679.22c0,0,209.47-623.59,1034.71-623.59c383.81,0,453.99,567.83,453.99,567.83L4567.97,3679.22z"
		/>
</g>
<g>
	<linearGradient id="SVGID_18_" gradientUnits="userSpaceOnUse" x1="3876.0244" y1="4446.3359" x2="3910.7026" y2="4012.7903">
		<stop  offset="0" style="stop-color:#3489C2"/>
		<stop  offset="1" style="stop-color:#3067A6"/>
	</linearGradient>
	<path class="st21" d="M3044.77,4201.03c-539.96,174.24-569.23,351.4-569.23,351.4s1041.29-59.9,1380.35-66.46
		c358.26-6.94,1407.77,14.76,1407.77,14.76s-94.76-187.5-394.74-285.63C4423.91,4069.53,3490.37,4057.24,3044.77,4201.03z"/>
	<path class="st22" d="M2482.33,3537.75c81.69,459.3,461.6,697.88,461.6,697.88l1972.36,0.84c0,0,313.17-330.16,300.84-527.23
		c11.71,2.32-404.78,20.74-1353.27,20.74C3266.26,3729.99,2486.25,3532.74,2482.33,3537.75z"/>
	<path class="st23" d="M4490.81,4236.3l425.47,0.18c0,0,313.17-330.16,300.84-527.23c11.71,2.32-404.78,20.74-1353.27,20.74
		c-298.8,0,694.52,30.5,925.96,157.08S4490.81,4236.3,4490.81,4236.3z"/>
	<linearGradient id="SVGID_19_" gradientUnits="userSpaceOnUse" x1="2416.4045" y1="3594.3667" x2="5295.394" y2="3594.3667">
		<stop  offset="0" style="stop-color:#E09E67"/>
		<stop  offset="1" style="stop-color:#C78754"/>
	</linearGradient>
	<path class="st24" d="M2416.86,3439.31l-0.46,86.84c0,0,729.36,144.39,931.44,167.2c289.57,32.67,786.95,60.68,1049.69,55.43
		c224.97-4.49,897.86-39.54,897.86-39.54l-0.02-112.39c0,0-675.26,63.18-1364.51,34.94
		C3443.61,3611.84,2416.86,3439.31,2416.86,3439.31z"/>
</g>
<g>
	<linearGradient id="SVGID_20_" gradientUnits="userSpaceOnUse" x1="3162.144" y1="4635.0229" x2="3204.2561" y2="4281.2832">
		<stop  offset="0" style="stop-color:#3489C2"/>
		<stop  offset="1" style="stop-color:#3278B4"/>
	</linearGradient>
	<path class="st25" d="M3332.92,4149.38c-12.54-4.91-26.2,4.03-35.53,13.02c-19.06,18.37-34.47,39.51-49.71,60.58
		c-79.26,109.62-156.3,220.53-231.08,332.67c56.52,44.73,119.27,83.06,186.33,113.8c41.7-86.22,80.44-173.6,116.14-261.97
		c9.51-23.54,18.81-47.18,26.14-71.34C3392.59,4179.92,3332.92,4149.38,3332.92,4149.38z"/>
	<linearGradient id="SVGID_21_" gradientUnits="userSpaceOnUse" x1="3803.1609" y1="4668.499" x2="3803.1609" y2="4294.4507">
		<stop  offset="0" style="stop-color:#3489C2"/>
		<stop  offset="1" style="stop-color:#3278B4"/>
	</linearGradient>
	<path class="st26" d="M3660.29,4163.35c12.54-4.91,26.2,4.03,35.53,13.02c19.06,18.37,34.47,39.51,49.71,60.58
		c79.26,109.62,156.3,220.53,231.08,332.67c-56.52,44.73-119.27,83.06-186.33,113.8c-41.7-86.22-80.44-173.6-116.14-261.97
		c-9.51-23.54-18.81-47.18-26.14-71.34C3600.62,4193.89,3660.29,4163.35,3660.29,4163.35z"/>
</g>
<circle class="st27" cx="3257.68" cy="1289.71" r="333.01"/>
<g>
	<path class="st28" d="M3238.81,3059.26c7.47-9.03,22.87-57.69,20.39-69.15s-7.08-22.56-7.56-34.27
		c-0.66-16.03,19.97-41.4,23.18-57.12c3.6-17.63-11.26-57.45-13.01-75.36c-6.04-61.85-17.3-91.54-18.65-153.67
		c-0.9-41.51,2.63-82.99,6.6-124.32c5.82-60.63,12.97-122.58,39.77-177.27c61.85-94.75,183.06-155.06,288.66-121.6
		c87.75,27.81,160.16,157.57,158.33,249.6c-1.29,64.78-20.03,88.54,1.35,149.7c6.34,18.13-8.27,45.21-5.96,64.28
		c6.37,52.68-25.18,92.44-21.49,145.38c2.03,29.17,33.38,64.16,27.46,92.79c-2.36,11.41-19.14,29.12-23.29,40
		c-4.15,10.88-6.87,55.82,0,65.23L3238.81,3059.26z"/>
	<path class="st29" d="M3322.36,2811.51c-30.21-60.53-25.75-131.6-31.97-198.96c-5.55-60.13-19.56-123.84,5.79-178.64
		c17.14-37.04,50.7-64.65,87.84-81.57s77.9-24.17,118.4-29.23c42.42-5.3,88.1-7.75,125.23,13.44
		c36.89,21.05,58.37,62.09,68.08,103.44c20.25,86.22-2.53,175.8-17.05,263.16c-9.68,58.24-17.25,120.76-55.54,165.7
		c-28.38,33.32-72.93,49.54-142.69,49.54C3385.71,2918.38,3351.94,2870.79,3322.36,2811.51z"/>
	<path class="st28" d="M3488.84,2375.28c0.26,19.88,15.57,36.57,32.55,46.9s36.35,16.37,53.06,27.14
		c11.24,7.24,21.09,16.49,32.5,23.47c15.41,9.42,33.16,14.4,48.81,23.42c27.96,16.13,48.32,47.29,46.01,79.49
		c7.99-44.98,16.02-90.65,11.52-136.11s-23.21-91.5-59.61-119.11c-19.07-14.46-41.95-23.17-65.19-28.9
		c-49.24-12.14-102.52-11.32-149.4,8.03c-21.92,9.05-42.03,21.89-61.81,34.96c-22.45,14.82-44.91,30.25-62.65,50.47
		c-33.6,38.3-47.34,93.14-35.78,142.76c14.8-18.49,43.09-16.48,64.96-25.59c27.44-11.44,43.92-40.36,70.18-54.28
		c11.87-6.29,25.24-9.22,37.45-14.83c12.21-5.6,23.93-15,26.83-28.12L3488.84,2375.28z"/>
	<path class="st30" d="M3444.68,2761.5c-17.89,1.78-32.82,15.99-39.59,32.65c-4.97,12.23-6.15,26.43-0.98,38.58
		c6.53,15.37,22.32,25.34,38.67,28.71c16.36,3.37,33.33,1.06,49.69-2.28c15.82-3.23,31.95-7.65,44.57-17.72
		c12.62-10.07,20.92-27.08,16.47-42.59c-3.21-11.19-12.46-19.86-22.88-25.04c-10.42-5.18-22.04-7.35-33.5-9.4L3444.68,2761.5z"/>
	<path class="st31" d="M3404.38,2771.96c-10.04,3.25-19.38,8.64-27.23,15.7c19.93,12.86,47.63,21.8,51.74,45.16
		c3.18,18.1-14.45,36.66-32.69,34.42c49.47,42.92,123.86,41.67,186.9,23.89c44.35-12.51,87.95-32.87,118.64-67.26
		c38.65-43.31,52.18-103.07,60.78-160.47c15.79-105.36,19.63-212.51,11.43-318.74c-3.33-43.17-8.72-86.51-22.02-127.71
		c-1.43-4.43-2.94-9.33-1.1-13.6c1.36-3.17,4.36-5.4,5.74-8.56c2.05-4.68,0.11-10.06-1.88-14.76c-12.6-29.66-27.9-58.18-45.63-85.1
		c-1.38-2.1-2.95-4.32-5.33-5.14c-2.62-0.9-5.46,0.15-8.03,1.19c-9.95,4.03-19.91,8.07-29.86,12.1c-2.37,0.96-4.86,2.01-6.41,4.05
		c-2.33,3.07-1.84,7.37-1.03,11.14c7.57,34.93,32.9,62.89,49.26,94.66c22.14,43.02,27.52,92.56,29.59,140.9
		c3.18,74.14-0.52,148.39-4.92,222.47c-2.1,35.45-4.42,71.22-14.29,105.33c-23.31,80.55-90.98,146.71-172.03,168.2
		c-7.68,2.04-16.47,3.53-23.09-0.87c-8.65-5.76-8.76-19.34-2.69-27.77c6.07-8.43,16.29-12.73,26.23-15.75
		c11.14-3.39,25.84-11.75,20.86-22.27c-4.24-8.94-17.38-6.38-26.75-3.19c-43.24,14.72-92.31,11.46-133.22-8.86L3404.38,2771.96z"/>
	<path class="st32" d="M3249.12,3169.81c-10.95,13.87-33.61,30.1-26.39,46.22c5.26,11.73,4.57,32.39,10.27,43.91
		c12.02,24.32-2.3,51.4-10.27,77.33c13.64-5.34,56.13-27.31,58.49-41.76c2.35-14.45-3.63-20.32,7.09-30.3
		c-7.09,9.98,5.86,13.55,11.34,24.51c6.54,13.08,13.07,26.16,19.61,39.23c-7.51-14.52,5.92-30.42,11.64-45.73
		c3.47-9.29,4.05-19.51,2.55-29.31c-1.1-7.19-2.52-16.28,3.62-20.17c1.81-1.15,4.01-1.56,6.16-1.6
		c12.83-0.25,22.81,11.42,27.69,23.29c4.87,11.87,6.79,25.07,13.79,35.83c12.92,19.86,39.32,25.88,63.01,25.82
		c40.43-0.11,80.72-13.29,113.4-37.1c7.1-5.17,14.22-11,22.86-12.62c18.97-3.55,35.81,15.74,37.81,34.93
		c0.64,6.17,0.26,12.52,2.18,18.42c3.18,9.77,13.05,16.95,23.32,16.96c-9.58-11.93-5.75-32.1,7.54-39.68
		c-3.96,5.98,1.5,13.53,6.33,18.84c4.82,5.31,9.27,13.97,4.04,18.88c14.1-9.54,24.8-24,29.8-40.28c9.81,7.44,15.56,19.91,14.87,32.2
		c0.71-16.89,17.77-28.1,24.55-43.59c10.91-24.92-6.61-52.08-15.21-77.89c-4.96-14.91-6.98-30.78-13.13-45.25
		c-6.15-14.46-17.92-28.02-33.49-30.15L3249.12,3169.81z"/>
	<g>
		<path class="st33" d="M3351.33,4018.39c-11.29-4.91-23.59,4.03-31.98,13.02c-17.15,18.37-31.03,39.51-44.74,60.58
			c-71.34,109.62-140.69,220.53-208,332.67c50.87,44.73,107.36,83.06,167.72,113.8c37.54-86.22,72.41-173.6,104.54-261.97
			c8.56-23.54,16.93-47.18,23.53-71.34C3405.05,4048.93,3351.33,4018.39,3351.33,4018.39z"/>
		<path class="st33" d="M3646.01,4032.36c11.29-4.91,23.59,4.03,31.98,13.02c17.15,18.37,31.03,39.51,44.74,60.58
			c71.34,109.62,140.69,220.53,208,332.67c-50.87,44.73-107.36,83.06-167.72,113.8c-37.54-86.22-72.41-173.6-104.54-261.97
			c-8.56-23.54-16.93-47.18-23.53-71.34C3592.3,4062.9,3646.01,4032.36,3646.01,4032.36z"/>
	</g>
	<path class="st29" d="M3792.81,3618c-4.13,17.47-13.17,33.31-20.5,49.69c-7.33,16.39-13.1,34.4-10.09,52.09
		c0.68,3.99,3.07,8.85,7.1,8.36c2.08-0.25,3.67-1.94,4.9-3.64c9.9-13.65,9.5-34.41,23.29-44.11c0.88-0.62,1.91-1.2,2.98-1.03
		c2.02,0.32,2.66,2.88,2.79,4.92c1.53,24.42-4.82,49.27-17.87,69.96c-4.92,7.81-10.97,15.6-11.54,24.81c-0.09,1.45,0,3.02,0.86,4.19
		c1.78,2.41,5.51,1.75,8.31,0.71c32.8-12.15,56.13-43.3,65.4-77.04c9.26-33.73,6.04-69.77-1.91-103.84L3792.81,3618z"/>
	<path class="st29" d="M3191.33,3560.84c4.13,17.47,13.17,33.31,20.5,49.69c7.33,16.39,13.1,34.4,10.09,52.09
		c-0.68,3.99-3.07,8.85-7.1,8.36c-2.08-0.25-3.67-1.94-4.9-3.64c-9.9-13.65-9.5-34.41-23.29-44.11c-0.88-0.62-1.91-1.2-2.98-1.03
		c-2.02,0.32-2.66,2.88-2.79,4.92c-1.53,24.42,4.82,49.27,17.87,69.96c4.92,7.81,10.97,15.6,11.54,24.81c0.09,1.45,0,3.02-0.86,4.19
		c-1.78,2.41-5.51,1.75-8.31,0.71c-32.8-12.15-56.13-43.3-65.4-77.04c-9.26-33.73-6.04-69.77,1.91-103.84L3191.33,3560.84z"/>
	<path class="st34" d="M3421.07,2920.93c5.87,29.23-15.35,61.17-44.58,67.08c-26.98,5.45-66.76,5.29-91.89,16.52
		c-15.84,7.08-33.49,22.63-42.77,37.29c-25.86,40.86-55.93,116.46-69.4,157.28c-15.83,47.97-50.03,143.96-56.16,194.1
		c-6.51,53.21,6.55,252.91,22.77,213.22l70.99-21.06c0,0-10.61-136.09-6.35-187.7c4.59-55.66,37.27-194.77,96.22-228.68
		c10.12,27.25,11.33,56.86,16.34,85.5c10.97,62.75,40.54,122.57,40.11,186.28c-0.35,51.18-20.08,99.99-37.97,150.83
		c-17.82,54.89-67.19,120.5-75.08,177.67c39.01,140.18,75.57,315.67,111.3,308.67c44.05-5.54,6.09-260.93-19.84-289.29
		c36.72-51.18,76.68-100.03,119.57-146.17c36.55-45.29,77.87-35.05,104.87,14.11c30.6,51.94,50.82,112.37,96.7,151.47
		c29.13,24.85-17.45,49.71-30.87,144.81c-8.04,56.98,7.61,149.44,32.63,147.28c30.52-4.03,32.18-91.61,39.34-116.81
		c11.94-47.33,17.67-66.04,34.88-111.72c10.55-28.01,18.46-56.75,16.99-86.65c-1.77-36.19-16.1-51.74-33.91-83.3
		c-58.02-107.13-99.61-230.8-92.34-353.74c7.46-51.24,27.35-111.89,45.63-163.06c63.42,122.28,107.42,236.59,112.03,374.26
		c0.37,11.15,3.06,73.23,3.06,73.23s49.82-2.8,68.78-0.65c-3.34-111.84,7.6-255.98-34.56-327.08
		c-28.44-59.01-50.27-121.23-64.48-185.18c-9.12-41.04-27.99-92.76-53.66-110.28c-53.91-36.79-105.25,12.79-146.29-55.23
		c-3.83-6.22-5.42-31.84-5.42-31.84s-86.15-4.36-123.2-7.49L3421.07,2920.93z"/>
	<g>
		<path d="M3549.01,2617.72c0-23.5,22.46-42.55,50.17-42.55c17.32,0,50.49,16.22,50.49,16.22s-0.32,17.52-0.32,26.33
			c0,23.5-22.46,42.55-50.17,42.55C3571.47,2660.27,3549.01,2641.22,3549.01,2617.72z"/>
		<ellipse class="st35" cx="3597.27" cy="2619.85" rx="46.36" ry="40.87"/>
		<ellipse class="st36" cx="3596.87" cy="2617.72" rx="37.61" ry="38.74"/>
		<circle class="st37" cx="3596.87" cy="2619.85" r="31.75"/>
	</g>
	<g>
		<path d="M3423.32,2611.35c0-23.5-22.46-42.55-50.17-42.55c-17.32,0-50.49,16.22-50.49,16.22s0.32,17.52,0.32,26.33
			c0,23.5,22.46,42.55,50.17,42.55C3400.85,2653.89,3423.32,2634.84,3423.32,2611.35z"/>
		<ellipse class="st35" cx="3375.05" cy="2613.48" rx="46.36" ry="40.87"/>
		<ellipse class="st36" cx="3375.45" cy="2611.35" rx="37.61" ry="38.74"/>
		<circle class="st37" cx="3375.45" cy="2613.48" r="31.75"/>
	</g>
	<g>
		<path class="st30" d="M3404.57,2687.3c0,0,38.57,41.26,78.77,41.26c39.57,0,86.36-33.1,86.36-33.1s-27.78-23.52-44.85-38.45
			c-11.32-9.9-23.99-20.36-39.03-20.61c-11.91-0.2-22.83,6.1-33.03,12.26c-10.58,6.39-21.13,12.84-31.65,19.34
			c-4.23,2.61-9.07,6.67-7.76,11.47L3404.57,2687.3z"/>
		<g>
			<g>
				<g>
					<path class="st31" d="M3709.64,2580.64c-1.33-18.32-4.76-38-17.98-50.76c-15-14.48-43.55-18.12-58.78-18.92
						c-31.27-1.64-92.14-3.14-125.11-3.14c-48.67,0-144.86-3.3-193.36,6.88c-5.83,1.22-17.83,6.07-22.08,9.01
						c-29.52,20.41-47.03,55.88-47.26,91.77c-0.23,35.89,21.16,71.07,53.13,87.38c10.77,5.5,22.48,8.94,34.27,11.61
						c13.32,3.02,27.16,5.1,40.59,2.63c30.54-5.61,51.63-32.54,72.85-55.21c5.36-5.72,11.14-11.44,18.5-14.15
						c8.77-3.23,18.64-1.7,27.41,1.54c42.1,15.53,65,66.24,108.5,77.28c34.5,8.75,71.54-12.31,90.11-42.67
						C3709,2653.54,3712.21,2616.14,3709.64,2580.64z M3668.04,2659.85c-5.12,13.11-12.61,26.6-25.51,32.21
						c-14.45,6.29-31.23,0.85-45.3-6.23c-18.23-9.18-35.07-21.11-49.76-35.27c-13.96-13.45-27.2-29.62-46.02-34.26
						c-26.05-6.42-51.46,11.73-70.58,30.56s-38.74,40.71-65.31,44.42c-23.32,3.25-47.16-9.5-60.58-28.85s-17.28-44.2-14.29-67.56
						c1.63-12.77,5.36-25.62,13.28-35.76c18.55-23.76,53.08-25.91,83.23-26.02c45.16-0.17,90.31-0.34,135.47-0.52l50.71-0.7
						c24.81-0.91,51.39-1.37,72.28,12.04c17.96,11.53,28.89,32.15,31.76,53.29S3675.8,2639.97,3668.04,2659.85z"/>
				</g>
			</g>
			<path class="st38" d="M3522.49,2532.93c-45.16,0.17-90.31,0.34-135.47,0.52c-30.15,0.11-64.67,2.26-83.23,26.02
				c-7.92,10.15-11.65,23-13.28,35.76c-2.98,23.35,0.88,48.21,14.29,67.56c13.41,19.35,37.26,32.1,60.58,28.85
				c26.57-3.71,46.19-25.6,65.31-44.42c19.12-18.82,44.53-36.98,70.58-30.56c18.82,4.64,32.06,20.82,46.02,34.26
				c14.7,14.16,31.53,26.09,49.76,35.27c14.08,7.09,30.85,12.53,45.3,6.23c12.9-5.62,20.4-19.11,25.51-32.21
				c7.76-19.88,12.24-41.49,9.37-62.64s-13.8-41.77-31.76-53.3c-20.9-13.41-47.47-12.95-72.28-12.04L3522.49,2532.93z"/>
		</g>
	</g>
</g>
</svg>
